<svg xmlns="http://www.w3.org/2000/svg" xmlns:xlink="http://www.w3.org/1999/xlink" width="500" zoomAndPan="magnify" viewBox="0 0 375 374.999991" height="500" preserveAspectRatio="xMidYMid meet" version="1.0"><defs><g/><clipPath id="bcd1d9f758"><path d="M 181 139 L 199 139 L 199 156 L 181 156 Z M 181 139 " clip-rule="nonzero"/></clipPath><clipPath id="d9ebddfe3f"><path d="M 182.191406 138.980469 L 199.4375 139.339844 L 199.09375 155.835938 L 181.847656 155.476562 Z M 182.191406 138.980469 " clip-rule="nonzero"/></clipPath><clipPath id="78573fa0a4"><path d="M 180.90625 138.953125 L 198.902344 139.328125 L 198.527344 157.324219 L 180.53125 156.949219 Z M 180.90625 138.953125 " clip-rule="nonzero"/></clipPath></defs><g fill="#fff6e7" fill-opacity="1"><g transform="translate(165.116987, 201.655153)"><g><path d="M 33.984375 -41.578125 C 32.609375 -41.578125 32.015625 -40.78125 32.015625 -39.59375 C 32.015625 -39 32.28125 -38.546875 32.734375 -38.140625 C 34.90625 -37.421875 35.578125 -36.625 35.578125 -34.453125 L 35.578125 -13.0625 L 14.65625 -40.59375 C 14.1875 -41.1875 13.59375 -41.578125 12.875 -41.578125 L 3.953125 -41.578125 C 2.578125 -41.578125 1.984375 -40.78125 1.984375 -39.59375 C 1.984375 -39 2.25 -38.546875 2.640625 -38.140625 C 4.8125 -37.421875 5.484375 -36.625 5.484375 -34.453125 L 5.484375 -7.1875 C 5.484375 -4.953125 4.8125 -4.15625 2.640625 -3.4375 C 2.25 -3.109375 1.984375 -2.578125 1.984375 -1.984375 C 1.984375 -0.796875 2.578125 0 3.953125 0 L 11.359375 0 C 12.734375 0 13.328125 -0.796875 13.328125 -1.984375 C 13.328125 -2.578125 13.0625 -3.109375 12.609375 -3.4375 C 10.421875 -4.15625 9.828125 -4.953125 9.828125 -7.1875 L 9.828125 -33.390625 L 34.453125 -1.0625 C 35.3125 -0.0625 36.03125 0.59375 37.484375 0.59375 C 39.203125 0.59375 39.859375 -0.328125 39.859375 -1.390625 L 39.859375 -34.453125 C 39.859375 -36.625 40.453125 -37.421875 42.703125 -38.140625 C 43.15625 -38.546875 43.421875 -39 43.421875 -39.59375 C 43.421875 -40.78125 42.765625 -41.578125 41.453125 -41.578125 Z M 33.984375 -41.578125 "/></g></g></g><g clip-path="url(#bcd1d9f758)"><g clip-path="url(#d9ebddfe3f)"><g clip-path="url(#78573fa0a4)"><path fill="#86b649" d="M 198.613281 139.464844 C 198.488281 139.453125 198.367188 139.453125 198.246094 139.441406 C 197.335938 139.363281 196.429688 139.277344 195.515625 139.300781 C 194.984375 139.316406 194.453125 139.316406 193.921875 139.339844 C 193.609375 139.355469 193.296875 139.382812 192.992188 139.445312 C 192.152344 139.621094 191.320312 139.828125 190.511719 140.125 C 189.609375 140.457031 188.746094 140.859375 187.945312 141.375 C 186.980469 142 186.089844 142.714844 185.363281 143.617188 C 184.78125 144.34375 184.207031 145.070312 183.777344 145.894531 C 183.609375 146.21875 183.476562 146.566406 183.332031 146.902344 C 183.050781 147.554688 182.804688 148.214844 182.625 148.90625 C 182.453125 149.566406 182.28125 150.222656 182.1875 150.902344 C 182.089844 151.589844 181.960938 152.273438 181.898438 152.960938 C 181.859375 153.394531 181.839844 153.832031 181.921875 154.265625 C 182.019531 154.78125 182.011719 154.785156 181.671875 155.183594 C 181.65625 155.203125 181.636719 155.226562 181.621094 155.246094 C 181.171875 155.730469 180.894531 156.328125 180.566406 156.894531 C 180.542969 156.933594 180.566406 157 180.578125 157.148438 C 181.082031 156.339844 181.503906 155.589844 182.175781 154.941406 C 182.324219 155.1875 182.550781 155.234375 182.773438 155.300781 C 183.15625 155.414062 183.539062 155.492188 183.941406 155.457031 C 184.074219 155.445312 184.210938 155.476562 184.347656 155.480469 C 185.097656 155.507812 185.839844 155.585938 186.59375 155.542969 C 187.171875 155.511719 187.722656 155.359375 188.289062 155.28125 C 188.996094 155.1875 189.660156 154.9375 190.320312 154.679688 C 190.648438 154.550781 190.960938 154.378906 191.261719 154.195312 C 191.601562 153.992188 191.921875 153.757812 192.246094 153.535156 C 193.082031 152.96875 193.851562 152.320312 194.519531 151.554688 C 194.894531 151.121094 195.257812 150.679688 195.542969 150.179688 C 195.769531 149.777344 195.992188 149.371094 196.214844 148.964844 C 196.789062 147.90625 197.25 146.800781 197.597656 145.652344 C 197.890625 144.671875 198.160156 143.6875 198.4375 142.703125 C 198.589844 142.152344 198.746094 141.601562 198.882812 141.042969 C 198.96875 140.714844 199.035156 140.378906 199.082031 140.042969 C 199.128906 139.691406 198.960938 139.496094 198.613281 139.464844 Z M 198.613281 139.464844 " fill-opacity="1" fill-rule="nonzero"/></g></g></g></svg>